<svg width="135" height="50" viewBox="0 0 135 50" fill="none" xmlns="http://www.w3.org/2000/svg">
<path d="M102.174 17.5353C101.249 17.5597 100.187 17.8902 99.1823 18.4658C97.1358 19.6386 95.9694 21.4636 96.5823 22.5339C96.7479 22.8231 97.027 23.0282 97.3861 23.1502C99.1432 23.7472 102.435 22.3034 103.721 20.2373C104.708 18.6508 103.995 17.4874 102.174 17.5353ZM102.979 18.6941C102.03 20.336 99.8158 21.6721 97.9315 21.941C97.8943 21.9451 97.8571 21.9345 97.8275 21.9116C97.798 21.8887 97.7786 21.8552 97.7733 21.8182C97.768 21.7812 97.7773 21.7436 97.7993 21.7133C97.8212 21.6831 97.854 21.6625 97.8908 21.6561C99.8136 21.3817 101.886 20.0108 102.73 18.55C102.749 18.517 102.781 18.4929 102.818 18.483C102.855 18.4732 102.894 18.4784 102.927 18.4975C102.96 18.5166 102.984 18.5481 102.994 18.5849C103.004 18.6218 102.998 18.6611 102.979 18.6941ZM126.698 7.19402C127.85 7.16365 129.173 6.75219 130.424 6.03547C132.979 4.57143 134.431 2.2868 133.662 0.942707C133.226 0.181803 132.239 -0.0214883 131.359 0.00174483C125.766 0.149093 121.128 7.34134 126.698 7.19402ZM126.053 5.18138C128.444 4.8404 131.026 3.13574 132.08 1.31222C132.099 1.27918 132.131 1.25509 132.168 1.24524C132.204 1.2354 132.244 1.24061 132.277 1.25972C132.31 1.27884 132.334 1.31029 132.344 1.34717C132.353 1.38405 132.348 1.42333 132.329 1.45636C131.224 3.36654 128.56 5.11472 126.093 5.46635C126.056 5.47173 126.017 5.46189 125.987 5.43898C125.956 5.41607 125.936 5.38197 125.931 5.34418C125.925 5.30639 125.935 5.268 125.958 5.23747C125.981 5.20694 126.015 5.18676 126.053 5.18138Z" fill="white"/>
<path d="M105.966 16.3417C105.219 16.7241 104.504 17.1668 103.828 17.6654C104.289 18.0013 104.53 18.5361 104.431 19.2065C105.165 18.5777 105.958 18.0213 106.8 17.5453C106.286 16.8738 106.133 16.7059 105.966 16.3417ZM103.966 12.4271C103.947 12.4264 103.928 12.4219 103.911 12.414C103.894 12.4061 103.879 12.3949 103.866 12.381C103.853 12.3672 103.843 12.3509 103.836 12.3332C103.83 12.3155 103.827 12.2966 103.828 12.2777C103.829 12.2396 103.846 12.2036 103.874 12.1777C103.902 12.1518 103.939 12.1381 103.977 12.1395C105.46 12.1965 107.165 11.6336 108.362 10.7856L109.7 9.06384C107.939 8.31249 104.687 9.21212 103.162 10.8942C102.562 11.5559 102.339 12.2217 102.533 12.769C102.856 13.6831 104.308 14.0939 106.076 13.7778C106.213 13.5371 106.135 13.6541 107.853 11.4417C106.692 12.0803 105.259 12.4768 103.966 12.4271ZM133.594 10.5943C131.024 9.72154 126.432 11.6409 124.753 14.2997C124.742 14.3306 123.834 15.601 124.372 16.7014C125.115 18.2212 128.065 18.3097 130.948 16.899C133.831 15.4883 135.571 13.1043 134.829 11.5847C134.601 11.1202 134.168 10.7894 133.594 10.5943ZM133.571 12.4588C132.111 14.7018 128.621 16.4967 125.84 16.4403C125.802 16.4395 125.766 16.4236 125.739 16.3961C125.713 16.3686 125.698 16.3317 125.699 16.2935C125.7 16.2554 125.716 16.2191 125.743 16.1927C125.771 16.1662 125.808 16.1518 125.846 16.1526C128.556 16.2075 131.94 14.4373 133.33 12.3018C133.35 12.2698 133.383 12.2474 133.42 12.2395C133.458 12.2316 133.497 12.2389 133.529 12.2597C133.561 12.2805 133.583 12.3132 133.591 12.3506C133.599 12.3879 133.591 12.4268 133.571 12.4588Z" fill="white"/>
<path d="M119.468 12.0041C119.431 12.0107 119.392 12.0024 119.361 11.981C119.33 11.9595 119.309 11.9268 119.302 11.8897C119.294 11.8526 119.302 11.8142 119.323 11.7827C119.344 11.7513 119.376 11.7293 119.413 11.7216C120.315 11.5472 121.196 11.4627 122.027 11.4382L122.363 10.53C122.53 10.0777 122.563 9.58048 122.46 9.10998C121.79 9.58437 121.131 10.1118 120.548 10.685C120.529 10.7037 120.505 10.7168 120.479 10.7227C120.453 10.7286 120.426 10.7272 120.401 10.7186C120.3 10.6846 120.269 10.5554 120.346 10.4798C121.664 9.18442 123.433 8.05058 125.053 7.194C124.343 6.86785 123.964 6.29642 123.91 5.61483C122.876 6.1895 121.361 7.15902 119.684 8.65075C119.655 8.67561 119.618 8.68818 119.58 8.68574C119.542 8.6833 119.507 8.66605 119.482 8.63773C119.457 8.60941 119.444 8.5723 119.446 8.53446C119.448 8.49663 119.465 8.46112 119.493 8.43564C120.063 7.92791 120.656 7.44541 121.269 6.98952L120.629 6.01121C119.961 4.99008 118.66 4.59316 117.536 5.06712L111.649 7.54851C111.251 7.71735 110.902 7.98523 110.637 8.32673L106.528 13.6169C105.824 14.5226 105.819 15.7912 106.517 16.7019L108.699 19.553C109.348 20.4021 110.468 20.7503 111.485 20.4196L118.533 18.1237C119.272 17.8826 119.85 17.3264 120.119 16.5978L121.095 13.958C120.481 13.9329 119.843 13.9369 119.201 13.9843C119.163 13.9871 119.125 13.9746 119.096 13.9497C119.068 13.9248 119.05 13.8894 119.047 13.8513C119.044 13.8132 119.057 13.7756 119.081 13.7467C119.106 13.7178 119.142 13.7 119.18 13.6972C120.934 13.5678 122.83 13.75 124.548 14.094C125.042 13.3317 125.736 12.6683 126.465 12.1318C124.974 11.8137 122.329 11.4512 119.468 12.0041ZM118.082 6.8747L115.751 10.9252C115.412 11.5144 114.871 11.9608 114.228 12.182L108.471 14.1637C108.441 14.174 108.408 14.1741 108.378 14.1639C108.249 14.12 108.247 13.9363 108.377 13.8915L114.135 11.9098C114.712 11.7113 115.197 11.3105 115.501 10.7816L117.833 6.73112C117.842 6.71472 117.855 6.70034 117.87 6.68881C117.885 6.67727 117.902 6.6688 117.92 6.66389C117.938 6.65898 117.957 6.65772 117.976 6.66018C117.995 6.66264 118.013 6.66878 118.029 6.67824C118.062 6.69727 118.087 6.72865 118.097 6.7655C118.106 6.80234 118.101 6.84162 118.082 6.8747Z" fill="white"/>
<path d="M4.65376 22.3339V19.4668H18.431V22.3339H4.65376ZM13.8035 7.1305L23.2688 26.8581H19.5616L10.9639 8.44568H12.3049L3.70723 26.8581H0L9.46527 7.1305H13.8035Z" fill="white"/>
<path d="M41.4215 15.5476V18.441H27.6442V15.5476H41.4215ZM29.9317 16.9943L28.5382 25.806L26.8817 23.8595H42.1839V26.8581H24.9887L26.5662 16.9943L24.9887 7.1305H42.0525V10.1291H26.8817L28.5382 8.18264L29.9317 16.9943Z" fill="white"/>
<path d="M48.2213 16.0211H56.2405C57.3974 16.0211 58.3089 15.758 58.9749 15.232C59.6585 14.7059 60.0003 13.9869 60.0003 13.0751C60.0003 12.1457 59.6585 11.4267 58.9749 10.9182C58.3089 10.3921 57.3974 10.1291 56.2405 10.1291H47.7218L49.273 8.18264V26.8581H45.8024V7.1305H56.556C57.9408 7.1305 59.1502 7.38477 60.1844 7.89331C61.2361 8.3843 62.0512 9.07696 62.6296 9.97128C63.2255 10.8481 63.5235 11.8827 63.5235 13.0751C63.5235 14.2324 63.2255 15.2583 62.6296 16.1526C62.0512 17.0294 61.2361 17.722 60.1844 18.2306C59.1502 18.7216 57.9408 18.9671 56.556 18.9671H48.2213V16.0211ZM52.1126 17.6256H56.1879L64.0231 26.8581H59.8689L52.1126 17.6256Z" fill="white"/>
<path d="M77.2137 27.2263C74.97 27.2263 72.9981 26.7967 71.2979 25.9375C69.5976 25.0782 68.2742 23.8858 67.3277 22.3602C66.3812 20.8171 65.9079 19.0284 65.9079 16.9943C65.9079 14.9602 66.3812 13.1803 67.3277 11.6547C68.2742 10.1116 69.5976 8.91037 71.2979 8.05113C72.9981 7.19188 74.97 6.76226 77.2137 6.76226C79.4573 6.76226 81.4292 7.19188 83.1295 8.05113C84.8297 8.91037 86.1531 10.1116 87.0996 11.6547C88.0461 13.1803 88.5194 14.9602 88.5194 16.9943C88.5194 19.0284 88.0461 20.8171 87.0996 22.3602C86.1531 23.8858 84.8297 25.0782 83.1295 25.9375C81.4292 26.7967 79.4573 27.2263 77.2137 27.2263ZM77.2137 24.1225C78.8087 24.1225 80.1847 23.8332 81.3416 23.2545C82.4984 22.6758 83.3924 21.8517 84.0234 20.782C84.672 19.7123 84.9962 18.4498 84.9962 16.9943C84.9962 15.5388 84.672 14.2763 84.0234 13.2066C83.3924 12.1369 82.4984 11.3128 81.3416 10.7341C80.1847 10.1554 78.8087 9.86607 77.2137 9.86607C75.6361 9.86607 74.2601 10.1554 73.0858 10.7341C71.9289 11.3128 71.0262 12.1369 70.3776 13.2066C69.7466 14.2763 69.4311 15.5388 69.4311 16.9943C69.4311 18.4498 69.7466 19.7123 70.3776 20.782C71.0262 21.8517 71.9289 22.6758 73.0858 23.2545C74.2601 23.8332 75.6361 24.1225 77.2137 24.1225Z" fill="white"/>
<path d="M25.875 43.2137H29.3982C29.5034 44.0028 29.8277 44.6955 30.371 45.2917C30.9319 45.8879 31.6681 46.3526 32.5796 46.6858C33.4911 47.0014 34.5428 47.1592 35.7347 47.1592C37.5051 47.1592 38.9073 46.8874 39.9415 46.3438C40.9757 45.7827 41.4927 45.0286 41.4927 44.0817C41.4927 43.3102 41.1948 42.7315 40.5988 42.3457C40.0028 41.9599 38.9248 41.6706 37.3648 41.4777L33.1054 40.9253C30.7216 40.6097 28.9863 40.0222 27.8996 39.163C26.8303 38.2862 26.2957 37.0499 26.2957 35.4542C26.2957 34.2442 26.655 33.2009 27.3737 32.3241C28.1099 31.4298 29.1441 30.7459 30.4762 30.2724C31.8084 29.7814 33.3684 29.5359 35.1563 29.5359C36.9266 29.5359 38.4954 29.7989 39.8626 30.325C41.2298 30.8511 42.3166 31.5876 43.1229 32.5345C43.9467 33.4639 44.3937 34.5599 44.4638 35.8224H40.9406C40.853 35.121 40.555 34.516 40.0466 34.0075C39.5559 33.499 38.8898 33.1044 38.0484 32.8238C37.2071 32.5257 36.2167 32.3767 35.0774 32.3767C33.4648 32.3767 32.1764 32.6397 31.2124 33.1658C30.2483 33.6919 29.7663 34.4108 29.7663 35.3227C29.7663 36.0241 30.0468 36.5677 30.6077 36.9535C31.1861 37.3217 32.1852 37.6023 33.605 37.7952L37.917 38.4002C39.6873 38.6457 41.0808 38.9789 42.0975 39.3997C43.1316 39.803 43.8678 40.3554 44.306 41.0568C44.7442 41.7407 44.9633 42.6263 44.9633 43.7135C44.9633 44.976 44.5777 46.0808 43.8065 47.0277C43.0352 47.9746 41.9485 48.7111 40.5462 49.2372C39.1615 49.7457 37.5401 50 35.6821 50C33.7891 50 32.1151 49.7194 30.6603 49.1583C29.2229 48.5796 28.0836 47.7817 27.2422 46.7647C26.4009 45.7476 25.9451 44.564 25.875 43.2137Z" fill="white"/>
<path d="M53.7571 31.5087H57.2277V49.6318H53.7571V31.5087ZM45.6065 29.9042H65.3784V32.9554H45.6065V29.9042Z" fill="white"/>
<path d="M77.2393 50C74.9957 50 73.0238 49.5704 71.3235 48.7111C69.6233 47.8519 68.2999 46.6595 67.3534 45.1339C66.4069 43.5907 65.9336 41.8021 65.9336 39.768C65.9336 37.7338 66.4069 35.954 67.3534 34.4284C68.2999 32.8852 69.6233 31.684 71.3235 30.8248C73.0238 29.9655 74.9957 29.5359 77.2393 29.5359C79.483 29.5359 81.4549 29.9655 83.1551 30.8248C84.8554 31.684 86.1788 32.8852 87.1253 34.4284C88.0718 35.954 88.5451 37.7338 88.5451 39.768C88.5451 41.8021 88.0718 43.5907 87.1253 45.1339C86.1788 46.6595 84.8554 47.8519 83.1551 48.7111C81.4549 49.5704 79.483 50 77.2393 50ZM77.2393 46.8962C78.8344 46.8962 80.2104 46.6069 81.3672 46.0282C82.5241 45.4495 83.4181 44.6253 84.0491 43.5557C84.6976 42.486 85.0219 41.2234 85.0219 39.768C85.0219 38.3125 84.6976 37.0499 84.0491 35.9803C83.4181 34.9106 82.5241 34.0864 81.3672 33.5077C80.2104 32.9291 78.8344 32.6397 77.2393 32.6397C75.6618 32.6397 74.2858 32.9291 73.1114 33.5077C71.9546 34.0864 71.0519 34.9106 70.4033 35.9803C69.7723 37.0499 69.4568 38.3125 69.4568 39.768C69.4568 41.2234 69.7723 42.486 70.4033 43.5557C71.0519 44.6253 71.9546 45.4495 73.1114 46.0282C74.2858 46.6069 75.6618 46.8962 77.2393 46.8962Z" fill="white"/>
<path d="M94.3358 38.7947H102.355C103.512 38.7947 104.423 38.5317 105.089 38.0056C105.773 37.4796 106.115 36.7606 106.115 35.8487C106.115 34.9193 105.773 34.2004 105.089 33.6919C104.423 33.1658 103.512 32.9028 102.355 32.9028H93.8362L95.3875 30.9563V49.6318H91.9169V29.9042H102.67C104.055 29.9042 105.265 30.1584 106.299 30.667C107.351 31.158 108.166 31.8506 108.744 32.7449C109.34 33.6217 109.638 34.6563 109.638 35.8487C109.638 37.0061 109.34 38.0319 108.744 38.9262C108.166 39.803 107.351 40.4957 106.299 41.0042C105.265 41.4952 104.055 41.7407 102.67 41.7407H94.3358V38.7947ZM98.2271 40.3992H102.302L110.138 49.6318H105.983L98.2271 40.3992Z" fill="white"/>
<path d="M128.977 38.3213V41.2146H115.2V38.3213H128.977ZM117.487 39.768L116.094 48.5796L114.438 46.6332H129.74V49.6318H112.545L114.122 39.768L112.545 29.9042H129.608V32.9028H114.438L116.094 30.9563L117.487 39.768Z" fill="white"/>
</svg>
