<svg width="56" height="56" viewBox="0 0 56 56" fill="none" xmlns="http://www.w3.org/2000/svg">
<path d="M38.5 53.0833H15.75C10.9375 53.0833 7 49.1458 7 44.3333V44.0417L7.875 20.7083C8.02083 15.8958 11.9583 12.25 16.625 12.25H37.625C42.2917 12.25 46.2292 15.8958 46.375 20.7083L47.25 44.0417C47.3958 46.375 46.5208 48.5625 44.9167 50.3125C43.3125 52.0625 41.125 53.0833 38.7917 53.0833H38.5ZM16.625 15.1667C13.4167 15.1667 10.9375 17.6458 10.7917 20.7083L9.91667 44.3333C9.91667 47.5417 12.5417 50.1667 15.75 50.1667H38.7917C40.3958 50.1667 41.8542 49.4375 42.875 48.2708C43.8958 47.1042 44.4792 45.6458 44.4792 44.0417L43.6042 20.7083C43.4583 17.5 40.9792 15.1667 37.7708 15.1667H16.625Z" fill="white"/>
<path d="M27.1249 2.33333C32.8124 2.33333 37.3333 6.85417 37.3333 12.5417C37.3333 13.4167 36.7499 14 35.8749 14C34.9999 14 34.4166 13.4167 34.4166 12.5417C34.4166 8.45833 31.2083 5.25 27.1249 5.25C23.0416 5.25 19.8333 8.45833 19.8333 12.5417C19.8333 13.4167 19.2499 14 18.3749 14C17.4999 14 16.9166 13.4167 16.9166 12.5417C16.9166 6.85416 21.4374 2.33333 27.1249 2.33333Z" fill="white"/>
<g clip-path="url(#clip0_146_462)">
<path d="M18.4577 35.6936C17.9442 35.7071 17.3542 35.8906 16.7964 36.2101C15.6599 36.8611 15.0122 37.8742 15.3526 38.4684C15.4445 38.6289 15.5995 38.7428 15.799 38.8105C16.7748 39.1419 18.603 38.3405 19.3169 37.1935C19.865 36.3128 19.4691 35.667 18.4577 35.6936ZM18.9051 36.3369C18.3779 37.2483 17.1482 37.99 16.1018 38.1393C16.0812 38.1415 16.0605 38.1357 16.0441 38.123C16.0277 38.1102 16.0169 38.0916 16.014 38.0711C16.011 38.0506 16.0162 38.0297 16.0284 38.0129C16.0406 37.9961 16.0588 37.9847 16.0793 37.9811C17.147 37.8288 18.2977 37.0678 18.7668 36.2569C18.7774 36.2385 18.7949 36.2252 18.8153 36.2197C18.8358 36.2142 18.8576 36.2171 18.876 36.2277C18.8943 36.2383 18.9077 36.2558 18.9131 36.2763C18.9186 36.2967 18.9157 36.3185 18.9051 36.3369ZM32.077 29.953C32.717 29.9361 33.452 29.7077 34.1465 29.3099C35.5653 28.4972 36.3718 27.2289 35.9444 26.4828C35.7025 26.0604 35.1542 25.9476 34.6657 25.9605C31.5595 26.0423 28.984 30.0348 32.077 29.953ZM31.719 28.8358C33.0471 28.6465 34.4806 27.7002 35.0662 26.6879C35.0768 26.6696 35.0942 26.6562 35.1147 26.6507C35.1352 26.6453 35.157 26.6482 35.1753 26.6588C35.1937 26.6694 35.207 26.6869 35.2125 26.7073C35.218 26.7278 35.2151 26.7496 35.2045 26.7679C34.591 27.8283 33.1114 28.7988 31.7415 28.9939C31.7205 28.9969 31.6992 28.9915 31.6823 28.9787C31.6653 28.966 31.6541 28.9471 31.6512 28.9261C31.6482 28.9051 31.6536 28.8838 31.6663 28.8669C31.6791 28.8499 31.698 28.8387 31.719 28.8358Z" fill="white"/>
<path d="M20.5638 35.031C20.1487 35.2433 19.7515 35.489 19.3763 35.7658C19.6324 35.9523 19.7661 36.2491 19.7115 36.6213C20.1191 36.2722 20.5595 35.9634 21.0266 35.6991C20.7412 35.3264 20.6567 35.2332 20.5638 35.031ZM19.4529 32.8579C19.4424 32.8575 19.4321 32.8551 19.4226 32.8507C19.4131 32.8463 19.4045 32.8401 19.3974 32.8324C19.3902 32.8247 19.3847 32.8156 19.381 32.8058C19.3774 32.796 19.3757 32.7855 19.3762 32.775C19.377 32.7539 19.3862 32.7339 19.4017 32.7195C19.4172 32.7051 19.4379 32.6975 19.459 32.6983C20.2828 32.7299 21.2293 32.4175 21.8946 31.9467L22.6372 30.9909C21.6597 30.5739 19.8535 31.0733 19.0067 32.007C18.6736 32.3743 18.5494 32.7439 18.6571 33.0477C18.8367 33.5551 19.6431 33.7832 20.6248 33.6077C20.7008 33.4741 20.6574 33.5391 21.6116 32.3109C20.9668 32.6654 20.171 32.8855 19.4529 32.8579ZM35.9066 31.8405C34.4795 31.356 31.9292 32.4215 30.9968 33.8974C30.9911 33.9146 30.4869 34.6198 30.7857 35.2307C31.1982 36.0743 32.8365 36.1234 34.4374 35.3403C36.0383 34.5573 37.0051 33.2339 36.5925 32.3903C36.4663 32.1324 36.2257 31.9488 35.9066 31.8405ZM35.8939 32.8755C35.0835 34.1207 33.1451 35.117 31.6008 35.0857C31.5796 35.0853 31.5594 35.0765 31.5448 35.0612C31.5301 35.0459 31.5221 35.0254 31.5225 35.0042C31.5229 34.9831 31.5318 34.9629 31.547 34.9482C31.5623 34.9336 31.5828 34.9256 31.604 34.926C33.1088 34.9565 34.9884 33.9738 35.76 32.7884C35.7715 32.7706 35.7897 32.7582 35.8104 32.7538C35.8311 32.7494 35.8528 32.7535 35.8705 32.765C35.8883 32.7766 35.9007 32.7947 35.9051 32.8154C35.9095 32.8362 35.9054 32.8578 35.8939 32.8755Z" fill="white"/>
<path d="M28.0621 32.6233C28.0414 32.627 28.0202 32.6224 28.0029 32.6105C27.9856 32.5986 27.9737 32.5804 27.9698 32.5598C27.9658 32.5392 27.9701 32.5179 27.9817 32.5004C27.9933 32.483 28.0113 32.4708 28.0318 32.4665C28.5328 32.3697 29.0218 32.3228 29.4833 32.3091L29.6698 31.805C29.7627 31.5539 29.781 31.2779 29.7238 31.0167C29.3515 31.2801 28.9857 31.5729 28.6619 31.8911C28.6513 31.9015 28.6381 31.9087 28.6236 31.912C28.6092 31.9153 28.5942 31.9145 28.5801 31.9097C28.5245 31.8908 28.5072 31.8191 28.5499 31.7772C29.2818 31.0581 30.2639 30.4287 31.1639 29.9532C30.7698 29.7721 30.559 29.4549 30.5292 29.0765C29.9549 29.3955 29.1136 29.9337 28.182 30.7618C28.1661 30.7756 28.1454 30.7826 28.1244 30.7812C28.1034 30.7799 28.0838 30.7703 28.0699 30.7546C28.0559 30.7389 28.0487 30.7183 28.0498 30.6973C28.0509 30.6763 28.0603 30.6566 28.0758 30.6424C28.3928 30.3606 28.722 30.0927 29.0624 29.8397L28.7068 29.2966C28.336 28.7297 27.6137 28.5094 26.9893 28.7725L23.7201 30.15C23.4989 30.2437 23.3053 30.3924 23.1577 30.582L20.876 33.5186C20.4851 34.0214 20.4825 34.7256 20.8697 35.2311L22.0815 36.8138C22.4423 37.2852 23.0642 37.4785 23.629 37.2949L27.543 36.0204C27.9531 35.8865 28.2741 35.5778 28.4239 35.1733L28.966 33.708C28.6248 33.694 28.2705 33.6962 27.9139 33.7225C27.8928 33.7241 27.8719 33.7172 27.8558 33.7033C27.8398 33.6895 27.8299 33.6699 27.8283 33.6487C27.8268 33.6276 27.8337 33.6067 27.8475 33.5907C27.8614 33.5746 27.881 33.5647 27.9022 33.5632C28.8761 33.4914 29.9293 33.5925 30.8832 33.7835C31.1577 33.3603 31.543 32.992 31.9478 32.6942C31.12 32.5176 29.6512 32.3164 28.0621 32.6233ZM27.2927 29.7759L25.9979 32.0244C25.8095 32.3515 25.5092 32.5993 25.1523 32.7221L21.955 33.8221C21.9383 33.8279 21.9201 33.8279 21.9034 33.8222C21.8317 33.7979 21.8309 33.6959 21.903 33.671L25.1003 32.571C25.4207 32.4608 25.6904 32.2383 25.8594 31.9447L27.1542 29.6962C27.1594 29.6871 27.1664 29.6791 27.1747 29.6727C27.183 29.6663 27.1925 29.6616 27.2026 29.6589C27.2127 29.6562 27.2233 29.6555 27.2337 29.6568C27.2441 29.6582 27.2542 29.6616 27.2632 29.6668C27.2816 29.6774 27.295 29.6948 27.3005 29.7153C27.3061 29.7357 27.3032 29.7575 27.2927 29.7759Z" fill="white"/>
</g>
<defs>
<clipPath id="clip0_146_462">
<rect width="18.7081" height="18.7081" fill="white" transform="translate(21.0142 21) rotate(18.7517)"/>
</clipPath>
</defs>
</svg>
