<svg width="56" height="56" viewBox="0 0 56 56" fill="none" xmlns="http://www.w3.org/2000/svg">
<g clip-path="url(#clip0_146_473)">
<path d="M51.506 14.4144C51.439 12.9411 51.439 11.5348 51.439 10.1286C51.439 8.99014 50.5684 8.11958 49.43 8.11958C41.0593 8.11958 34.6976 5.70882 29.4073 0.552466C28.6037 -0.184155 27.3983 -0.184155 26.5947 0.552466C21.3045 5.70882 14.9427 8.11958 6.57202 8.11958C5.4336 8.11958 4.56305 8.99014 4.56305 10.1286C4.56305 11.5348 4.56305 12.9411 4.49608 14.4144C4.22822 28.4771 3.82643 47.7632 27.3314 55.8661L28.001 56L28.6707 55.8661C52.1086 47.7632 51.7738 28.5441 51.506 14.4144ZM26.3938 33.9013C25.9921 34.2362 25.5233 34.4371 24.9876 34.4371H24.9206C24.3849 34.4371 23.8491 34.1692 23.5143 33.7674L17.2865 26.87L20.3 24.1913L25.1885 29.6155L36.0369 19.3028L38.7825 22.2493L26.3938 33.9013Z" fill="white"/>
</g>
<defs>
<clipPath id="clip0_146_473">
<rect width="56" height="56" fill="white"/>
</clipPath>
</defs>
</svg>
