<svg width="56" height="56" viewBox="0 0 56 56" fill="none" xmlns="http://www.w3.org/2000/svg">
<g clip-path="url(#clip0_146_455)">
<path d="M14.0415 29.8121H11.5301C11.208 29.8122 10.8929 29.9066 10.6239 30.0837C10.3548 30.2608 10.1434 30.5127 10.0159 30.8085L3.06381 46.9965L19.5743 38.5639C17.5979 35.8291 15.6423 32.8127 14.0415 29.8121ZM45.9837 30.8085C45.8563 30.5127 45.645 30.2607 45.376 30.0836C45.107 29.9066 44.792 29.8122 44.4699 29.8121H41.9587C38.9353 35.4774 34.5309 41.3321 31.729 44.553C29.7585 46.8132 26.2388 46.8105 24.2714 44.553C24.0702 44.3219 23.0196 43.1055 21.5725 41.235L18.5959 42.756L29.8555 53.9939L51.1905 42.9333L45.9837 30.8085ZM1.03261 51.7274L0.134642 53.8186C-0.330311 54.901 0.465939 56.1096 1.64828 56.1096H25.8256C25.9769 55.9973 25.9786 56.0041 26.7903 55.5832L15.5142 44.3305L1.03261 51.7274ZM55.8655 53.8187L52.4919 45.9634L32.9206 56.1096H54.3517C55.5313 56.1096 56.3311 54.9031 55.8655 53.8187ZM29.6471 14.9107C29.6471 14.0041 28.9079 13.2671 28 13.2671C27.0916 13.2671 26.3529 14.0041 26.3529 14.9107C26.3529 15.8168 27.0916 16.5544 28 16.5544C28.9078 16.5544 29.6471 15.8168 29.6471 14.9107Z" fill="white"/>
<path d="M29.2429 42.2863C29.7974 41.6497 42.8229 26.5824 42.8229 16.2252C42.8229 -5.13204 13.1772 -5.39268 13.1772 16.2252C13.1772 26.5824 26.2027 41.6497 26.7572 42.2863C27.4139 43.0396 28.5875 43.0388 29.2429 42.2863ZM23.059 14.9105C23.059 12.1914 25.2755 9.97965 28.0001 9.97965C30.7242 9.97965 32.9408 12.1915 32.9408 14.9105C32.9408 17.6291 30.7242 19.8409 28.0001 19.8409C25.2755 19.8409 23.059 17.6291 23.059 14.9105Z" fill="white"/>
</g>
<defs>
<clipPath id="clip0_146_455">
<rect width="56" height="56" fill="white"/>
</clipPath>
</defs>
</svg>
