<svg width="56" height="56" viewBox="0 0 56 56" fill="none" xmlns="http://www.w3.org/2000/svg">
<path d="M55.0992 30.0388C55.1858 32.1063 54.4487 34.1238 53.0497 35.6485C51.6506 37.1732 49.7039 38.0807 47.6366 38.1719C47.5157 38.1775 47.395 38.1803 47.2745 38.1803C46.7252 38.18 46.1776 38.1206 45.641 38.003C44.0489 40.4612 41.9613 42.5601 39.5117 44.1652C37.062 45.7704 34.3043 46.8467 31.4149 47.3251C31.0732 48.3291 30.3914 49.1821 29.4874 49.7367C28.5834 50.2914 27.5141 50.5127 26.4642 50.3625C25.4143 50.2124 24.4499 49.7001 23.7376 48.9143C23.0254 48.1285 22.6101 47.1185 22.5635 46.0589C22.5169 44.9994 22.842 43.9569 23.4825 43.1116C24.1231 42.2663 25.0388 41.6714 26.0715 41.4296C27.1041 41.1879 28.1888 41.3146 29.138 41.7878C30.0871 42.2609 30.8411 43.0508 31.2697 44.021C35.3375 43.2687 39.0124 41.1128 41.6539 37.929C44.2953 34.7453 45.7357 30.7355 45.7241 26.5987C45.7241 16.8255 37.7731 8.87451 27.9999 8.87451C18.2267 8.87451 10.2757 16.8255 10.2757 26.5987C10.2751 29.6208 11.0474 32.5928 12.5193 35.2321C12.5692 35.3192 12.6067 35.4129 12.6305 35.5104C12.7727 35.9055 12.7575 36.3402 12.5881 36.7244C12.4187 37.1087 12.108 37.4131 11.7204 37.5746C10.7714 37.9742 9.75198 38.1799 8.72224 38.1796C8.60106 38.1796 8.47961 38.1768 8.35792 38.1712C6.29148 38.0788 4.346 37.1707 2.94806 35.6461C1.55012 34.1215 0.813828 32.1047 0.900619 30.038C0.93551 29.2139 0.916041 28.4786 0.89701 27.7675C0.879291 27.098 0.860807 26.4057 0.891213 25.6833C0.981959 23.6653 1.84999 21.7608 3.31349 20.3686C4.77699 18.9763 6.72244 18.2044 8.74237 18.2144C11.986 10.7931 19.3965 5.59326 27.9999 5.59326C36.6034 5.59326 44.014 10.7931 47.2576 18.2145C49.2777 18.203 51.2238 18.9743 52.6875 20.3665C54.1513 21.7588 55.019 23.6639 55.1085 25.6821C55.139 26.4056 55.1207 27.0978 55.1027 27.7673C55.0839 28.4784 55.0643 29.2141 55.0992 30.0388ZM41.7598 26.5987C41.759 28.7068 41.2741 30.7865 40.3424 32.6774C39.4107 34.5684 38.0571 36.2201 36.3861 37.5052C34.7151 38.7903 32.7712 39.6744 30.7044 40.0894C28.6376 40.5044 26.5032 40.4392 24.4656 39.8987L18.8961 43.1151C18.6151 43.2774 18.2922 43.3527 17.9684 43.3315C17.6446 43.3103 17.3343 43.1935 17.0769 42.996C16.8194 42.7985 16.6263 42.529 16.522 42.2217C16.4177 41.9144 16.4069 41.5831 16.4909 41.2696L17.9143 35.9597C15.5572 33.4118 14.2456 30.0698 14.2405 26.5987C14.2405 19.0094 20.4127 12.8356 27.9999 12.8356C35.5872 12.8356 41.7598 19.0094 41.7598 26.5987ZM24.1745 26.5987C24.1745 26.1636 24.0017 25.7463 23.694 25.4386C23.3863 25.131 22.969 24.9581 22.5339 24.9581H22.5312C22.2068 24.9587 21.8899 25.0554 21.6205 25.2361C21.3511 25.4167 21.1413 25.6732 21.0176 25.973C20.8939 26.2728 20.8619 26.6026 20.9255 26.9207C20.9892 27.2387 21.1456 27.5308 21.3752 27.7599C21.6048 27.989 21.8971 28.145 22.2153 28.2081C22.5334 28.2711 22.8632 28.2384 23.1628 28.1142C23.4624 27.9899 23.7184 27.7796 23.8986 27.5099C24.0787 27.2402 24.1749 26.9231 24.1749 26.5987H24.1745ZM29.6409 26.5987C29.6408 26.545 29.6379 26.4914 29.6321 26.438C29.6269 26.3843 29.619 26.331 29.6082 26.2783C29.5985 26.2257 29.5853 26.1738 29.5687 26.1229C29.5535 26.0715 29.5349 26.0212 29.5152 25.9709C29.4955 25.9206 29.4714 25.8736 29.4463 25.8265C29.4214 25.7792 29.394 25.7332 29.3643 25.6887C29.3343 25.6438 29.3021 25.6003 29.2679 25.5586C29.2341 25.5168 29.198 25.477 29.1597 25.4394C29.1225 25.4011 29.0821 25.365 29.0405 25.33C28.9988 25.2972 28.9551 25.2644 28.9102 25.2348C28.8658 25.2051 28.8198 25.1777 28.7725 25.1528C28.7254 25.1276 28.6763 25.1047 28.627 25.0839C28.5777 25.0632 28.5274 25.0453 28.4761 25.0303C28.3739 24.9973 28.2682 24.976 28.1611 24.9669C28.0004 24.9514 27.8384 24.9591 27.6799 24.9898C27.6271 25.0006 27.5749 25.0141 27.5236 25.0303C27.4723 25.0453 27.4219 25.0632 27.3727 25.0839C27.3234 25.1047 27.2742 25.1276 27.2272 25.1528C27.1802 25.1779 27.1342 25.2053 27.0893 25.2348C26.9995 25.2944 26.916 25.3629 26.84 25.4394C26.8016 25.477 26.7655 25.5168 26.7316 25.5586C26.6978 25.6004 26.6661 25.6438 26.6366 25.6887C26.6065 25.7332 26.5787 25.7792 26.5534 25.8265C26.5281 25.8734 26.5054 25.9216 26.4855 25.9709C26.4648 26.0207 26.4465 26.0714 26.4308 26.1229C26.4156 26.1733 26.4025 26.2258 26.3916 26.2783C26.3807 26.331 26.3726 26.3843 26.3674 26.438C26.3621 26.4915 26.3596 26.5451 26.3597 26.5987C26.3599 26.6791 26.362 26.707 26.3674 26.7606C26.3729 26.8138 26.3809 26.8668 26.3916 26.9192C26.4025 26.9717 26.4156 27.0242 26.4308 27.0756C26.4466 27.1268 26.4648 27.1772 26.4855 27.2265C26.5056 27.2762 26.5283 27.3247 26.5534 27.372C26.5785 27.419 26.607 27.465 26.6366 27.5098C26.666 27.5545 26.6977 27.5976 26.7316 27.6389C26.7657 27.6807 26.8019 27.7209 26.84 27.7592C26.8783 27.7964 26.9177 27.8336 26.9603 27.8675C27.0015 27.9016 27.0445 27.9334 27.0893 27.9626C27.1342 27.9922 27.18 28.0206 27.2272 28.0458C27.3222 28.0953 27.4214 28.1363 27.5236 28.1683C27.5749 28.1836 27.6274 28.1967 27.6799 28.2076C27.7853 28.2292 27.8927 28.2398 28.0004 28.2394C28.4349 28.2381 28.8515 28.0656 29.1597 27.7592C29.2354 27.6825 29.3039 27.5991 29.3643 27.5098C29.3938 27.465 29.4211 27.419 29.4463 27.372C29.4714 27.325 29.4944 27.2758 29.5152 27.2265C29.536 27.1773 29.5535 27.1259 29.5687 27.0756C29.585 27.0243 29.5982 26.9721 29.6082 26.9192C29.6189 26.8668 29.6269 26.8139 29.6321 26.7606C29.6378 26.7068 29.6406 26.6527 29.6405 26.5985L29.6409 26.5987ZM35.1096 26.5987C35.1096 26.1636 34.9368 25.7463 34.6291 25.4386C34.3214 25.131 33.9041 24.9581 33.469 24.9581H33.4658C33.1415 24.9587 32.8246 25.0555 32.5552 25.2361C32.2858 25.4168 32.076 25.6732 31.9523 25.9731C31.8287 26.2729 31.7966 26.6027 31.8603 26.9207C31.9239 27.2388 32.0804 27.5308 32.31 27.7599C32.5396 27.9891 32.8319 28.145 33.1501 28.2081C33.4683 28.2711 33.798 28.2384 34.0976 28.1142C34.3972 27.9899 34.6532 27.7796 34.8333 27.5099C35.0135 27.2402 35.1096 26.9231 35.1096 26.5987Z" fill="white"/>
</svg>
