<svg xmlns="http://www.w3.org/2000/svg" viewBox="0 0 24 24" fill="white">
  <path d="M12 0C5.373 0 0 5.373 0 12s5.373 12 12 12 12-5.373 12-12S18.627 0 12 0zm0 2c5.514 0 10 4.486 10 10s-4.486 10-10 10S2 17.514 2 12 6.486 2 12 2zm-1.95 14.38l-.07-3.98L15.25 7l-1.42-.13-3.13 2.35c-.2.18-.36.36-.5.52l-2.37 4.5c-.12.23-.19.46-.21.7-.02.23.03.45.15.65.11.2.28.37.5.48.21.11.47.17.77.17h.84c.33 0 .65-.08.95-.23.3-.15.57-.38.8-.67l1.22-1.56.01 1.54c0 .8.43 1.21 1.28 1.21.4 0 .74-.11 1.01-.33.27-.22.41-.52.41-.9z"/>
</svg> 