<svg xmlns="http://www.w3.org/2000/svg" viewBox="0 0 24 24" fill="white">
  <path d="M12 0C5.373 0 0 5.373 0 12s5.373 12 12 12 12-5.373 12-12S18.627 0 12 0zm.14 4.5c-3.183 0-5.772 2.59-5.772 5.772 0 1.07.3 2.062.817 2.912L6.1 17.7l4.622-1.08a5.772 5.772 0 0 0 7.188-5.347c0-3.182-2.59-5.772-5.772-5.772zm0 1.155c2.548 0 4.618 2.07 4.618 4.618 0 2.547-2.07 4.617-4.618 4.617-2.547 0-4.617-2.07-4.617-4.617 0-2.548 2.07-4.618 4.617-4.618zm-1.85 2.078c-.097 0-.25.036-.347.18-.096.145-.366.358-.366.873s.375 1.012.427 1.083c.053.072 1.12 1.78 2.76 2.42 1.37.534 1.645.428 1.942.4.298-.026.96-.392 1.094-.77.135-.38.135-.705.096-.77-.04-.07-.15-.107-.318-.188-.168-.08-1.014-.5-1.17-.558-.156-.053-.27-.08-.385.08-.116.16-.442.558-.542.673-.1.115-.2.13-.366.044-.168-.08-.704-.26-1.343-.828-.496-.443-.83-.99-.928-1.157-.096-.168-.01-.26.073-.344.075-.075.168-.196.25-.294.085-.098.114-.17.17-.282.054-.115.027-.214-.014-.3-.04-.08-.385-.928-.528-1.27-.144-.34-.29-.278-.385-.283-.1-.004-.215-.004-.33-.004z"/>
</svg> 